PathFileType  4	(X/Y/Z) /Users/kristensteudel/Documents/NMBL_Research/BertecForceProcessing/anc_files/
DataRate	CameraRate	NumFrames	NumMarkers	Units	OrigDataRate	OrigDataStartFrame	OrigNumFrames
  200.0		  200.0		   10		     46		 mm	  200.0	      440	   1171
Frame#	Time	r_knee			r_shank_antsup			r_ankle			r_calc			r_5meta			r_toe			L_knee			L_shank_antsup			L_ankle			L_calc			L_5meta			L_toe			r_sh2			r_sh3			r_sh4			L_sh2			L_sh3			r_thigh1			r_thigh2			r_thigh3			r_thigh4			r_thigh5			L_thigh1			L_thigh2			L_thigh3			L_thigh4			r.ASIS			r.PSIS			L.ASIS			L.PSIS			C7			R_Shoulder			L_Shoulder			Sternum			R_humerus			R_elbow_med			R_elbow_lat			R_forearm			R_wrist_radius			R_wrist_ulna			L_humerus			L_elbow_med			L_elbow_lat			L_forearm			L_wrist_radius			L_wrist_ulna			
		X1	Y1	Z1	X2	Y2	Z2	X3	Y3	Z3	X4	Y4	Z4	X5	Y5	Z5	X6	Y6	Z6	X7	Y7	Z7	X8	Y8	Z8	X9	Y9	Z9	X10	Y10	Z10	X11	Y11	Z11	X12	Y12	Z12	X13	Y13	Z13	X14	Y14	Z14	X15	Y15	Z15	X16	Y16	Z16	X17	Y17	Z17	X18	Y18	Z18	X19	Y19	Z19	X20	Y20	Z20	X21	Y21	Z21	X22	Y22	Z22	X23	Y23	Z23	X24	Y24	Z24	X25	Y25	Z25	X26	Y26	Z26	X27	Y27	Z27	X28	Y28	Z28	X29	Y29	Z29	X30	Y30	Z30	X31	Y31	Z31	X32	Y32	Z32	X33	Y33	Z33	X34	Y34	Z34	X35	Y35	Z35	X36	Y36	Z36	X37	Y37	Z37	X38	Y38	Z38	X39	Y39	Z39	X40	Y40	Z40	X41	Y41	Z41	X42	Y42	Z42	X43	Y43	Z43	X44	Y44	Z44	X45	Y45	Z45	X46	Y46	Z46	

440	2.19500	891.921	564.588	-195.942	931.027	448.943	-194.719	955.551	120.276	-267.114	894.377	120.817	-349.600	1050.901	30.156	-252.811	1113.571	52.645	-294.645	756.191	547.506	-510.811	648.434	552.328	-493.631	406.436	737.957	-433.384	424.614	799.930	-384.556	263.862	652.937	-435.960	264.926	618.362	-364.133	950.057	332.744	-215.948	858.409	434.224	-189.042	868.860	325.294	-227.291	684.740	632.603	-523.446	576.806	680.856	-487.645	898.977	795.569	-146.514	927.564	689.766	-183.987	898.611	642.466	-170.632	794.393	755.297	-134.135	831.575	651.135	-172.882	853.572	751.623	-503.881	848.733	611.109	-497.944	738.738	758.933	-538.392	737.082	621.892	-518.646	820.813	1043.218	-198.498	613.791	1083.815	-261.427	817.328	1052.724	-459.015	617.484	1089.724	-365.307	754.526	1576.394	-306.414	808.592	1513.407	-105.124	816.990	1541.889	-501.893	894.830	1457.879	-307.050	707.011	1302.050	-28.211	557.668	1236.085	-65.909	582.726	1253.118	13.333	677.720	1096.568	0.154	721.443	991.682	-21.110	675.862	975.246	1.516	720.122	1317.393	-594.105	589.716	1236.375	-545.362	635.560	1262.215	-628.645	729.599	1109.049	-608.382	809.904	1045.139	-549.740	759.247	1006.167	-587.654
441	2.20000	879.629	559.785	-195.709	913.789	441.058	-195.956	921.810	117.572	-275.495	856.695	115.747	-353.242	1014.616	32.004	-253.519	1072.906	51.804	-306.148	776.271	546.436	-511.663	668.676	554.709	-497.173	430.338	741.690	-436.573	447.614	803.745	-387.513	288.223	656.383	-442.308	287.753	622.039	-370.142	927.879	324.509	-217.892	840.694	429.508	-189.059	846.216	320.084	-228.210	706.817	633.055	-526.073	599.437	681.993	-489.516	893.812	791.031	-143.505	921.001	685.266	-180.668	889.410	638.926	-171.548	786.801	752.784	-136.258	823.194	647.964	-173.352	865.119	754.231	-502.168	866.115	613.464	-496.843	751.018	756.820	-539.597	754.899	618.955	-520.039	818.515	1042.065	-197.158	613.582	1081.448	-262.582	816.843	1050.325	-457.873	616.305	1086.474	-366.543	752.874	1572.239	-306.759	809.155	1509.155	-103.804	814.066	1538.621	-501.460	894.118	1455.105	-308.538	716.987	1290.477	-28.679	569.497	1216.940	-63.959	595.849	1234.734	16.143	699.848	1085.025	-1.584	750.431	985.080	-24.921	705.849	965.834	-1.817	713.442	1315.592	-594.238	581.955	1237.196	-544.472	626.775	1262.282	-628.426	711.430	1103.556	-613.212	788.437	1033.313	-557.955	734.273	998.552	-595.447
442	2.20500	867.541	554.567	-195.984	896.930	432.691	-196.672	882.922	118.257	-283.487	813.332	107.035	-360.205	975.675	32.374	-255.346	1034.831	48.981	-306.355	797.815	546.229	-511.349	689.934	553.021	-498.329	453.744	743.545	-439.769	469.637	805.806	-390.407	312.271	657.573	-449.175	310.668	623.341	-375.792	904.291	316.337	-221.750	823.495	424.416	-187.839	822.367	315.145	-227.478	728.224	631.024	-529.055	621.772	681.886	-490.901	887.437	785.945	-141.684	913.562	679.573	-177.028	879.936	634.678	-171.426	779.076	749.844	-137.050	814.375	644.278	-173.410	876.900	757.338	-500.143	883.299	616.355	-495.112	764.259	755.112	-540.813	773.980	617.188	-521.247	816.135	1040.513	-195.638	610.772	1079.331	-264.557	816.458	1047.519	-456.674	615.513	1083.043	-367.660	750.618	1568.575	-306.292	810.780	1504.901	-102.843	812.116	1535.175	-502.056	893.310	1452.335	-309.966	727.113	1279.760	-29.501	582.196	1198.594	-62.172	609.756	1216.737	18.035	722.899	1075.380	-4.432	779.991	981.165	-30.028	738.737	956.702	-7.335	707.605	1313.217	-591.709	573.167	1238.236	-544.633	616.566	1263.507	-629.077	694.108	1100.715	-617.747	768.195	1024.863	-565.904	709.832	993.953	-603.069
443	2.21000	855.932	548.850	-197.431	882.011	423.402	-199.852	839.800	113.939	-289.887	772.581	98.523	-367.974	936.087	32.465	-257.426	993.518	49.073	-310.950	820.170	546.726	-511.260	711.416	552.773	-499.791	476.011	743.715	-443.107	490.141	806.052	-393.810	337.125	655.931	-452.847	333.523	621.911	-381.960	880.204	307.850	-227.626	809.122	418.794	-186.244	798.623	313.723	-230.048	749.692	628.637	-532.730	643.240	680.690	-493.985	879.753	780.623	-143.907	903.706	673.326	-175.725	869.112	629.240	-170.152	770.573	746.505	-137.977	804.188	640.225	-174.257	889.238	761.449	-497.516	902.070	620.998	-492.617	777.314	753.991	-541.691	794.199	616.540	-522.242	813.275	1038.429	-193.753	608.582	1077.143	-266.434	816.048	1044.023	-455.018	614.409	1079.423	-369.451	749.067	1565.489	-304.987	812.137	1501.058	-101.384	810.579	1531.556	-501.950	893.098	1449.575	-311.293	737.757	1270.342	-31.144	595.849	1181.178	-60.685	624.511	1200.165	18.748	746.393	1068.886	-8.436	809.765	980.586	-36.022	771.345	952.606	-12.980	701.543	1311.164	-590.308	563.699	1240.016	-545.293	605.666	1265.527	-629.736	676.255	1100.505	-621.929	747.342	1018.980	-573.271	687.067	992.144	-609.831
444	2.21500	844.550	543.076	-199.648	868.829	414.552	-205.116	799.065	110.683	-295.194	731.617	94.785	-371.829	896.674	32.601	-259.429	954.298	48.418	-312.870	843.494	548.517	-510.510	733.555	552.061	-500.378	497.242	742.023	-445.799	509.160	804.678	-396.023	360.841	651.863	-458.757	356.143	617.269	-388.116	856.121	300.513	-236.014	796.151	414.631	-188.144	773.381	312.821	-237.311	771.300	627.769	-533.717	663.147	679.175	-499.646	870.519	774.600	-144.299	892.592	666.848	-175.088	856.870	623.421	-169.791	760.468	742.359	-137.204	792.242	636.200	-175.447	901.054	766.206	-494.126	921.208	626.813	-490.149	791.954	753.453	-542.691	815.184	616.987	-522.691	810.476	1035.963	-191.393	605.923	1074.774	-268.580	815.660	1040.130	-453.051	613.472	1075.703	-371.136	747.753	1562.435	-303.833	813.928	1497.538	-99.958	807.980	1527.868	-501.914	892.482	1446.814	-312.440	748.994	1263.187	-33.292	610.263	1166.377	-60.124	640.156	1186.471	17.470	769.655	1066.579	-13.214	839.323	983.620	-42.918	803.918	952.191	-19.247	694.820	1309.870	-590.006	553.630	1242.686	-546.713	594.482	1268.842	-630.692	659.771	1102.198	-625.988	727.184	1016.193	-579.829	665.287	992.942	-616.061
445	2.22000	832.970	537.737	-203.087	852.678	406.706	-211.267	763.250	111.584	-299.793	694.207	93.678	-374.911	857.326	33.142	-261.023	915.358	48.306	-314.614	867.333	552.224	-509.341	756.642	551.074	-499.757	515.972	739.230	-449.154	525.437	802.122	-399.697	383.715	644.199	-464.470	378.729	610.039	-393.031	829.546	294.774	-243.366	780.820	415.746	-194.147	748.147	313.315	-238.510	793.378	628.603	-533.592	682.559	677.209	-503.991	859.224	767.690	-143.684	879.665	659.764	-175.735	843.260	616.927	-171.147	749.611	738.737	-138.133	779.277	631.750	-176.590	913.649	772.212	-490.214	940.660	634.134	-486.852	808.366	754.498	-543.548	836.881	618.824	-523.709	807.257	1032.980	-188.620	603.582	1071.978	-270.146	815.461	1035.898	-450.865	612.228	1072.364	-372.845	746.852	1560.222	-303.397	815.862	1494.691	-98.634	805.637	1524.608	-501.954	892.102	1443.948	-313.143	760.619	1258.581	-35.835	625.149	1155.146	-61.015	654.881	1176.628	16.180	792.494	1067.263	-18.514	867.818	989.908	-50.301	835.717	955.287	-26.234	686.462	1309.842	-591.056	542.959	1246.739	-548.837	583.242	1273.658	-631.806	643.629	1105.481	-629.724	707.967	1016.204	-585.729	644.694	995.995	-621.309
446	2.22500	819.556	532.332	-205.993	832.772	404.890	-217.756	726.668	112.464	-303.841	656.903	93.908	-380.067	817.802	33.365	-262.195	876.330	48.103	-314.899	891.538	558.008	-507.592	780.313	553.266	-500.057	532.098	735.053	-453.333	539.217	797.647	-401.452	405.859	633.384	-469.685	400.601	599.075	-398.999	804.301	291.817	-244.178	761.376	416.410	-199.767	724.737	313.552	-238.377	814.206	631.244	-533.505	701.568	676.339	-505.275	850.312	759.684	-142.686	866.533	651.465	-177.325	828.422	609.973	-173.122	738.853	734.652	-141.502	765.324	627.180	-179.072	924.919	779.531	-485.979	959.756	643.263	-483.185	823.080	756.848	-543.001	857.921	623.073	-522.361	804.384	1030.046	-185.380	601.517	1069.448	-271.990	815.864	1031.548	-448.689	610.582	1069.467	-374.534	745.749	1558.211	-302.822	817.337	1492.696	-97.593	804.160	1521.663	-501.495	891.580	1440.649	-313.480	771.896	1255.678	-38.783	639.810	1147.085	-63.841	669.325	1168.693	14.526	814.689	1069.797	-24.207	895.101	999.239	-58.074	867.463	962.775	-34.648	676.686	1311.290	-592.517	531.537	1252.636	-551.227	572.167	1280.023	-633.318	627.604	1110.333	-633.261	689.743	1018.954	-590.715	625.425	1001.034	-625.464
447	2.23000	803.130	526.540	-207.772	811.176	402.395	-221.188	688.669	113.784	-307.568	618.171	95.083	-383.276	777.913	33.581	-264.167	836.418	47.916	-316.904	915.368	565.924	-505.196	804.297	556.438	-499.726	547.839	727.726	-456.814	550.020	791.135	-405.844	427.406	619.479	-474.603	422.743	585.255	-404.250	780.102	289.349	-245.743	740.579	413.607	-198.904	701.240	313.124	-239.943	835.327	636.043	-532.923	720.357	676.354	-506.616	840.678	750.239	-141.625	852.828	642.138	-178.019	812.591	602.725	-175.653	728.302	730.841	-143.645	750.110	622.753	-182.955	935.518	788.301	-481.495	978.275	654.662	-479.427	837.408	761.041	-541.758	878.450	629.281	-520.426	801.629	1027.418	-181.974	599.711	1066.676	-273.759	815.921	1027.026	-446.529	609.835	1066.252	-375.641	744.931	1556.547	-302.196	818.757	1491.540	-96.812	802.593	1519.296	-501.189	891.094	1437.363	-313.588	783.065	1254.014	-41.695	654.866	1140.731	-67.033	683.625	1161.725	12.890	835.910	1074.254	-29.836	920.837	1011.395	-65.791	896.462	973.216	-42.920	666.620	1314.587	-593.991	519.792	1260.458	-554.076	561.709	1287.912	-634.878	611.958	1116.772	-636.240	672.490	1024.099	-594.699	607.172	1007.820	-628.694
448	2.23500	784.568	521.020	-209.026	788.714	397.594	-221.784	651.248	115.739	-310.372	579.614	97.520	-385.341	738.531	33.830	-266.067	796.875	47.953	-319.024	938.276	576.346	-502.103	827.612	560.986	-498.731	561.762	718.396	-460.610	558.509	782.280	-409.809	449.576	600.894	-478.996	445.297	568.024	-407.719	754.453	287.137	-250.780	718.556	410.408	-199.389	675.387	312.431	-242.813	855.419	641.844	-531.253	738.133	677.019	-507.038	830.727	741.539	-141.637	838.230	632.913	-178.931	796.056	596.168	-178.629	717.689	728.084	-145.696	734.576	619.490	-185.738	944.908	798.654	-476.986	995.463	667.701	-475.461	850.211	766.830	-539.950	898.124	637.495	-518.099	798.768	1024.357	-178.669	598.460	1063.612	-275.043	816.317	1022.938	-444.550	608.992	1063.598	-376.463	743.653	1554.902	-301.216	819.851	1491.409	-96.581	800.617	1517.241	-501.176	891.118	1434.374	-313.835	793.858	1253.594	-44.660	669.684	1135.460	-69.900	697.937	1156.153	11.404	855.909	1081.416	-35.202	944.547	1026.569	-74.211	923.783	985.162	-51.889	656.652	1319.506	-595.442	508.245	1269.914	-556.655	551.704	1297.032	-636.333	597.063	1124.819	-638.691	656.064	1030.815	-597.848	590.480	1016.258	-631.042
449	2.24000	765.600	516.566	-209.944	764.101	392.544	-221.831	614.313	118.335	-311.755	541.672	101.882	-387.168	698.544	33.905	-267.100	757.119	47.786	-319.508	960.103	588.161	-498.714	850.667	566.126	-496.958	574.261	706.807	-464.494	565.563	771.013	-413.630	473.595	580.915	-481.012	468.675	548.249	-411.410	724.684	284.624	-255.349	694.638	408.877	-200.266	647.263	313.263	-245.302	874.393	648.679	-529.187	755.121	677.243	-506.963	820.531	734.951	-142.084	824.548	626.345	-180.810	779.347	591.729	-180.325	707.054	727.313	-147.070	719.078	618.017	-187.087	953.609	810.520	-473.104	1011.815	682.906	-471.153	862.177	773.469	-537.685	916.668	647.095	-515.197	797.652	1021.761	-174.692	597.480	1061.337	-276.565	816.761	1019.368	-442.980	608.582	1061.206	-376.732	742.358	1553.666	-300.105	820.704	1492.097	-96.790	797.300	1515.790	-502.119	888.621	1431.394	-314.427	803.556	1254.064	-46.757	683.849	1131.563	-72.375	711.557	1152.358	9.766	873.536	1090.174	-42.167	965.676	1044.209	-83.444	949.030	1000.814	-60.990	646.818	1325.589	-596.758	496.923	1280.532	-558.841	542.284	1307.191	-637.514	583.352	1134.169	-640.658	641.230	1039.409	-599.931	575.210	1025.819	-632.703
